

<svg width="34" height="33" viewBox="0 0 34 33" fill="none" xmlns="http://www.w3.org/2000/svg">
<path d="M32.4727 11.793L22.5547 10.3516L18.1211 1.3633C18 1.1172 17.8008 0.917983 17.5547 0.796889C16.9375 0.492202 16.1875 0.746108 15.8789 1.3633L11.4453 10.3516L1.52736 11.793C1.25392 11.832 1.00392 11.961 0.812512 12.1563C0.581113 12.3941 0.453601 12.7141 0.457996 13.0459C0.46239 13.3777 0.598332 13.6942 0.83595 13.9258L8.01173 20.9219L6.31642 30.8008C6.27666 31.0306 6.30209 31.2669 6.38982 31.483C6.47756 31.6991 6.62408 31.8863 6.81278 32.0234C7.00148 32.1604 7.2248 32.2418 7.45743 32.2584C7.69006 32.275 7.92268 32.2261 8.12892 32.1172L17 27.4531L25.8711 32.1172C26.1133 32.2461 26.3945 32.2891 26.6641 32.2422C27.3438 32.125 27.8008 31.4805 27.6836 30.8008L25.9883 20.9219L33.1641 13.9258C33.3594 13.7344 33.4883 13.4844 33.5274 13.211C33.6328 12.5274 33.1563 11.8945 32.4727 11.793Z" fill="#FBFBFB"/>
</svg>
